<?xml version="1.0" encoding="UTF-8"?>
<svg width="752pt" height="752pt" version="1.1" viewBox="0 0 752 752" xmlns="http://www.w3.org/2000/svg">
 <path d="m546.49 392.58c-11.84 0-17.996-8.0508-23.207-15.156-5.2109-6.6289-9.9453-13.262-19.418-13.262-9.4727 0-14.207 6.6289-19.418 13.262-5.2109 7.1055-11.367 15.156-23.207 15.156-11.84 0-17.996-8.0508-23.207-15.156-5.2031-6.6289-9.9414-13.262-19.41-13.262-9.4727 0-14.207 6.6289-19.418 13.262-5.2109 7.1055-11.367 15.156-23.207 15.156s-17.996-8.0508-23.207-15.156c-5.207-6.6289-9.9414-13.262-19.414-13.262s-14.207 6.6289-19.418 13.262c-5.2109 7.1055-11.367 15.156-23.207 15.156s-17.996-8.0508-23.207-15.156c-5.2031-6.6289-9.9414-13.262-19.414-13.262-9.4727 0-14.207 6.6289-19.418 13.262-5.2109 7.1055-11.367 15.156-23.207 15.156-11.84 0-17.996-8.0508-23.207-15.156-5.2031-6.6289-9.9375-13.262-19.41-13.262v-4.7344c11.84 0 17.996 8.0508 23.207 15.156 5.2109 6.6289 9.9453 13.262 19.418 13.262s14.207-6.6289 19.418-13.262c5.2109-7.1055 11.367-15.156 23.207-15.156s17.996 8.0508 23.207 15.156c5.2109 6.6289 9.9453 13.262 19.418 13.262s14.207-6.6289 19.418-13.262c5.2109-7.1055 11.367-15.156 23.207-15.156s17.996 8.0508 23.207 15.156c5.2109 6.6289 9.9453 13.262 19.418 13.262s14.207-6.6289 19.418-13.262c5.2109-7.1055 11.367-15.156 23.207-15.156s17.996 8.0508 23.207 15.156c5.2109 6.6289 9.9453 13.262 19.418 13.262s14.207-6.6289 19.418-13.262c5.2109-7.1055 11.367-15.156 23.207-15.156s17.996 8.0508 23.207 15.156c5.2109 6.6289 9.9453 13.262 19.418 13.262s14.207-6.6289 19.418-13.262c5.2109-7.1055 11.367-15.156 23.207-15.156v4.7344c-9.4727 0-14.207 6.6289-19.418 13.262-5.2344 7.1055-11.391 15.156-23.23 15.156z" fill="#d4a393"/>
</svg>
